<svg width="25" height="25" viewBox="0 0 25 25" fill="none" xmlns="http://www.w3.org/2000/svg">
<path d="M21.0307 3.4624H3.78074C3.36589 3.4624 3.03074 3.79756 3.03074 4.2124V21.4624C3.03074 21.8772 3.36589 22.2124 3.78074 22.2124H21.0307C21.4456 22.2124 21.7807 21.8772 21.7807 21.4624V4.2124C21.7807 3.79756 21.4456 3.4624 21.0307 3.4624ZM18.8651 8.93506H17.3675C16.1932 8.93506 15.9659 9.49287 15.9659 10.3132V12.1202H18.769L18.4034 14.9491H15.9659V22.2124H13.0432V14.9515H10.5987V12.1202H13.0432V10.0343C13.0432 7.61318 14.5221 6.29365 16.6831 6.29365C17.719 6.29365 18.6073 6.371 18.8675 6.40615V8.93506H18.8651Z" fill="#D1E1EB" fill-opacity="0.62"/>
</svg>
