<svg width="25" height="25" viewBox="0 0 25 25" fill="none" xmlns="http://www.w3.org/2000/svg">
<path d="M12.405 7.33976C9.36485 7.33976 6.91128 9.79333 6.91128 12.8335C6.91128 15.8737 9.36485 18.3273 12.405 18.3273C15.4452 18.3273 17.8988 15.8737 17.8988 12.8335C17.8988 9.79333 15.4452 7.33976 12.405 7.33976ZM12.405 16.404C10.439 16.404 8.83449 14.7996 8.83449 12.8335C8.83449 10.8674 10.439 9.26298 12.405 9.26298C14.3711 9.26298 15.9756 10.8674 15.9756 12.8335C15.9756 14.7996 14.3711 16.404 12.405 16.404ZM18.1238 5.8344C17.414 5.8344 16.8407 6.40762 16.8407 7.11744C16.8407 7.82726 17.414 8.40048 18.1238 8.40048C18.8336 8.40048 19.4068 7.82994 19.4068 7.11744C19.407 6.94889 19.374 6.78195 19.3096 6.62619C19.2452 6.47043 19.1507 6.32891 19.0315 6.20972C18.9123 6.09054 18.7708 5.99604 18.615 5.93164C18.4593 5.86724 18.2923 5.83419 18.1238 5.8344ZM23.114 12.8335C23.114 11.3549 23.1273 9.88976 23.0443 8.41387C22.9613 6.69958 22.5702 5.17815 21.3166 3.92458C20.0604 2.66833 18.5416 2.27994 16.8273 2.1969C15.3488 2.11387 13.8836 2.12726 12.4077 2.12726C10.9291 2.12726 9.46395 2.11387 7.98806 2.1969C6.27378 2.27994 4.75235 2.67101 3.49878 3.92458C2.24253 5.18083 1.85413 6.69958 1.7711 8.41387C1.68806 9.89244 1.70145 11.3576 1.70145 12.8335C1.70145 14.3094 1.68806 15.7773 1.7711 17.2532C1.85413 18.9674 2.2452 20.4889 3.49878 21.7424C4.75503 22.9987 6.27378 23.3871 7.98806 23.4701C9.46663 23.5532 10.9318 23.5398 12.4077 23.5398C13.8863 23.5398 15.3515 23.5532 16.8273 23.4701C18.5416 23.3871 20.0631 22.996 21.3166 21.7424C22.5729 20.4862 22.9613 18.9674 23.0443 17.2532C23.13 15.7773 23.114 14.3121 23.114 12.8335ZM20.7568 19.1496C20.5613 19.6371 20.3256 20.0014 19.9479 20.3764C19.5702 20.754 19.2086 20.9898 18.7211 21.1853C17.3122 21.7451 13.9666 21.6192 12.405 21.6192C10.8434 21.6192 7.4952 21.7451 6.08628 21.188C5.59878 20.9924 5.23449 20.7567 4.85949 20.379C4.48181 20.0014 4.2461 19.6398 4.05056 19.1523C3.49342 17.7407 3.61931 14.3951 3.61931 12.8335C3.61931 11.2719 3.49342 7.92369 4.05056 6.51476C4.2461 6.02726 4.48181 5.66298 4.85949 5.28798C5.23717 4.91298 5.59878 4.67458 6.08628 4.47905C7.4952 3.9219 10.8434 4.0478 12.405 4.0478C13.9666 4.0478 17.3148 3.9219 18.7238 4.47905C19.2113 4.67458 19.5756 4.9103 19.9506 5.28798C20.3282 5.66565 20.564 6.02726 20.7595 6.51476C21.3166 7.92369 21.1907 11.2719 21.1907 12.8335C21.1907 14.3951 21.3166 17.7407 20.7568 19.1496Z" fill="#D1E1EB" fill-opacity="0.62"/>
</svg>
