<svg width="65" height="65" viewBox="0 0 65 65" fill="none" xmlns="http://www.w3.org/2000/svg">
<path d="M55.8487 34.4573C56.4997 33.8993 56.8252 33.6203 56.9445 33.2883C57.0491 32.9969 57.0491 32.6781 56.9445 32.3867C56.8252 32.0547 56.4997 31.7758 55.8487 31.2178L33.2601 11.8561C32.1395 10.8956 31.5792 10.4153 31.1048 10.4035C30.6925 10.3933 30.2987 10.5744 30.0382 10.8941C29.7384 11.2619 29.7384 11.9999 29.7384 13.4758V24.9299C24.0459 25.9257 18.836 28.8102 14.9643 33.1412C10.7433 37.8629 8.40838 43.9734 8.40509 50.3067V51.9387C11.2033 48.5678 14.6971 45.8415 18.6471 43.9466C22.1296 42.276 25.8942 41.2864 29.7384 41.0256V52.1992C29.7384 53.6751 29.7384 54.4131 30.0382 54.7809C30.2987 55.1006 30.6925 55.2817 31.1048 55.2715C31.5792 55.2597 32.1395 54.7794 33.2601 53.8189L55.8487 34.4573Z" stroke="#CCD2D5" stroke-width="3" stroke-linecap="round" stroke-linejoin="round"/>
</svg>
