<svg width="65" height="65" viewBox="0 0 65 65" fill="none" xmlns="http://www.w3.org/2000/svg">
<path d="M39.6034 17.6375C39.1148 18.1359 38.8411 18.8061 38.8411 19.5041C38.8411 20.2021 39.1148 20.8723 39.6034 21.3708L43.8701 25.6375C44.3685 26.1261 45.0387 26.3997 45.7367 26.3997C46.4347 26.3997 47.1049 26.1261 47.6034 25.6375L57.6567 15.5841C58.9976 18.5473 59.4036 21.8487 58.8206 25.0485C58.2376 28.2483 56.6933 31.1944 54.3935 33.4942C52.0936 35.794 49.1475 37.3383 45.9478 37.9213C42.748 38.5043 39.4466 38.0983 36.4834 36.7575L18.0567 55.1841C16.9959 56.245 15.557 56.841 14.0567 56.841C12.5564 56.841 11.1176 56.245 10.0567 55.1841C8.99586 54.1232 8.39988 52.6844 8.39988 51.1841C8.39988 49.6838 8.99586 48.245 10.0567 47.1841L28.4834 28.7575C27.1425 25.7943 26.7365 22.4928 27.3195 19.2931C27.9025 16.0933 29.4468 13.1472 31.7467 10.8474C34.0465 8.54755 36.9926 7.00323 40.1923 6.42023C43.3921 5.83723 46.6936 6.24322 49.6567 7.58412L39.6301 17.6108L39.6034 17.6375Z" stroke="#CCD2D5" stroke-width="3" stroke-linecap="round" stroke-linejoin="round"/>
</svg>
